<?xml version="1.0" encoding="UTF-8"?>
<svg width="100pt" height="100pt" version="1.1" viewBox="0 0 100 100" xmlns="http://www.w3.org/2000/svg">
 <path d="m61.492 6.0547h2.1172c16.727 0 30.336 13.609 30.336 30.336v1.7773l-32.453 0.003906zm32.453 38.367h-35.578c-1.7266 0-3.125-1.3984-3.125-3.125v-35.242h-10.484v35.219c0 1.7266-1.3984 3.125-3.125 3.125h-35.578v11.18h35.578c1.7266 0 3.125 1.3984 3.125 3.125v35.242h10.484v-35.219c0-1.7266 1.3984-3.125 3.125-3.125h35.578zm-55.438-6.2734v-32.094h-2.1133c-16.73 0-30.34 13.609-30.34 30.336v1.7578zm0 23.68h-32.453v1.7773c0 16.727 13.609 30.336 30.34 30.336h2.1133zm22.984 0.023437v32.094h2.1172c16.727 0 30.336-13.609 30.336-30.336v-1.7578z"/>
</svg>
