<?xml version="1.0" encoding="UTF-8"?>
<svg width="100pt" height="100pt" version="1.1" viewBox="0 0 100 100" xmlns="http://www.w3.org/2000/svg">
 <path d="m93.785 64.219h-87.57c-1.4648-4.5352-2.2305-9.3164-2.2305-14.219s0.76172-9.6836 2.2305-14.219h87.57c1.4648 4.5312 2.2305 9.3164 2.2305 14.219s-0.76562 9.6836-2.2305 14.219zm-85.211 5.8594c2.2148 4.5625 5.1992 8.7695 8.8906 12.461 8.6875 8.6875 20.246 13.477 32.535 13.477 12.293 0 23.848-4.7852 32.539-13.477 3.6914-3.6914 6.6758-7.8984 8.8906-12.461zm82.852-40.156c-2.2148-4.5625-5.1992-8.7695-8.8906-12.461-8.6875-8.6875-20.246-13.477-32.535-13.477s-23.848 4.7891-32.539 13.477c-3.6914 3.6914-6.6758 7.8984-8.8906 12.461z"/>
</svg>
