<?xml version="1.0" encoding="UTF-8"?>
<svg width="100pt" height="100pt" version="1.1" viewBox="0 0 100 100" xmlns="http://www.w3.org/2000/svg">
 <path d="m57.355 48.359c0-9.8438-8.0078-17.852-17.852-17.852-9.8398 0-17.852 8.0078-17.852 17.852 0 9.8398 8.0078 17.852 17.852 17.852s17.852-8.0117 17.852-17.852zm-7.2773 3.0391c-0.96094 10.125-10.57 9.7852-10.57 9.7852-10.57 0-10.57-9.5234-10.57-9.5234v-11.766c0-1.7266 1.3984-3.125 3.125-3.125h14.895c1.7266 0 3.125 1.3984 3.125 3.125zm-6.2461-8.375 0.007813 8.125c-0.49609 3.9766-4.332 3.7734-4.332 3.7734-4.1953 0.23047-4.3203-3.7969-4.3203-3.7969v-8.1016zm-7.4492 50.922c-16.727-0.007812-30.328-13.613-30.328-30.336v-27.215c0-16.727 13.605-30.332 30.328-30.336v18.426c-11.812 1.5391-20.977 11.648-20.977 23.879 0 12.227 9.1641 22.332 20.977 23.875zm57.562-57.551v27.215c0 16.727-13.609 30.336-30.336 30.336h-20.977v-21.711c11.812-1.5391 20.977-11.648 20.977-23.875s-9.1641-22.336-20.977-23.879v-18.426h20.977c16.727 0 30.336 13.609 30.336 30.34z"/>
</svg>
