<?xml version="1.0" encoding="UTF-8"?>
<svg width="100pt" height="100pt" version="1.1" viewBox="0 0 100 100" xmlns="http://www.w3.org/2000/svg">
 <path d="m34.77 44.043 0.007813 8.0859c-0.37891 3.9414-4.3359 3.8086-4.3359 3.8086-4.125 0.17969-4.3203-3.6953-4.3203-3.6953v-8.2031h8.6484zm59.035 22.418h-87.609c-0.085937-0.94141-0.14453-1.8906-0.14453-2.8516v-27.215c0-0.96094 0.054688-1.9141 0.14453-2.8516h87.602c0.085937 0.94141 0.14453 1.8906 0.14453 2.8516v27.215c0.003906 0.96094-0.050781 1.9141-0.13672 2.8516zm-52.789-14.039v-11.504c0-1.7266-1.3984-3.125-3.125-3.125h-14.895c-1.7266 0-3.125 1.3984-3.125 3.125v11.523s0 9.5938 10.57 9.7539c0.003906 0 9.4023 0.69531 10.574-9.7734zm51.527-25.133c-3.875-12.293-15.383-21.234-28.938-21.234h-27.211c-13.559 0-25.066 8.9414-28.941 21.234zm-85.086 45.422c3.875 12.293 15.383 21.234 28.941 21.234h27.211c13.555 0 25.062-8.9414 28.938-21.234z"/>
</svg>
